<svg width="83" height="32" viewBox="0 0 83 32" fill="none" xmlns="http://www.w3.org/2000/svg">
<path d="M0 0.444336H5.94025V6.41423H0V0.444336Z" fill="#202430"/>
<path d="M5.79252 31.5492V10.0278H0.148193V31.528H5.7926L5.79252 31.5492ZM43.1677 31.7617V26.4928C42.3432 26.4928 41.6456 26.4504 41.1382 26.3654C40.5463 26.2805 40.1024 26.0679 39.8064 25.7705C39.5104 25.4731 39.3202 25.0481 39.2145 24.4745C39.13 23.9434 39.0877 23.2424 39.0877 22.3926V14.8929H43.1677V10.0278H39.0876V1.65715H33.4432V22.4563C33.4432 24.2196 33.5913 25.7068 33.8872 26.8965C34.1832 28.065 34.6906 29.0211 35.3881 29.7434C36.0857 30.4657 37.0159 30.9756 38.1363 31.2943C39.2778 31.613 40.7154 31.7617 42.4277 31.7617H43.1677ZM75.4693 31.5492V0H69.8249V31.5492H75.4693ZM28.0105 12.1523C26.4462 10.4527 24.2476 9.60288 21.4572 9.60288C20.1043 9.60288 18.857 9.87908 17.7577 10.4314C16.6374 10.9838 15.7072 11.7486 14.9462 12.7258L14.6502 13.1296V10.0278H9.09045V31.528H14.6924V20.0768V20.4805C14.7559 18.4622 15.2421 16.975 16.1722 16.019C17.1659 14.9992 18.3707 14.4893 19.7449 14.4893C21.3727 14.4893 22.6199 14.9992 23.4444 15.9765C24.2476 16.9538 24.6704 18.3347 24.6704 20.098V31.528H30.357V19.3332C30.3782 16.2739 29.5749 13.8519 28.0105 12.1523ZM66.9075 20.7566C66.9075 19.2058 66.6328 17.7611 66.1043 16.4014C65.5546 15.0628 64.7935 13.8731 63.8423 12.8533C62.8699 11.8336 61.7072 11.0476 60.3543 10.474C59.0013 9.90028 57.5004 9.62407 55.8726 9.62407C54.3294 9.62407 52.8707 9.92156 51.5178 10.4952C50.1649 11.09 48.981 11.8761 47.9874 12.8746C46.9939 13.8731 46.1906 15.0629 45.6198 16.4227C45.0279 17.7823 44.753 19.2482 44.753 20.7992C44.753 22.3501 45.028 23.816 45.5775 25.1756C46.1271 26.5353 46.9094 27.7251 47.8817 28.7237C48.8542 29.7221 50.0592 30.5295 51.4543 31.1031C52.8496 31.6979 54.3928 31.9954 56.0418 31.9954C60.8193 31.9954 63.7788 29.8071 65.5546 27.7676L61.4958 24.6657C60.6502 25.6855 58.6208 27.0665 56.084 27.0665C54.4985 27.0665 53.1879 26.7053 52.1942 25.9617C51.2007 25.2394 50.5242 24.2196 50.1648 22.9662L50.1014 22.7749H66.9075V20.7566ZM50.1437 18.7808C50.1437 17.2086 51.9406 14.468 55.8092 14.4468C59.6777 14.4468 61.4958 17.1874 61.4958 18.7596L50.1437 18.7808ZM81.8958 28.8298C81.7901 28.5749 81.6422 28.3624 81.4519 28.1713C81.2616 27.98 81.0502 27.8313 80.7966 27.7251C80.5429 27.6189 80.2681 27.5552 79.9932 27.5552C79.6973 27.5552 79.4436 27.6189 79.19 27.7251C78.9362 27.8313 78.7248 27.98 78.5346 28.1713C78.3444 28.3624 78.1963 28.5749 78.0906 28.8298C77.9849 29.0848 77.9216 29.361 77.9216 29.6372C77.9216 29.9346 77.9849 30.1895 78.0906 30.4445C78.1963 30.6993 78.3444 30.9119 78.5346 31.1031C78.7248 31.2943 78.9362 31.443 79.19 31.5492C79.4436 31.6555 79.7185 31.7191 79.9932 31.7191C80.2892 31.7191 80.5429 31.6555 80.7966 31.5492C81.0502 31.443 81.2616 31.2943 81.4519 31.1031C81.6422 30.9119 81.7901 30.6994 81.8959 30.4445C82.0017 30.1896 82.0649 29.9134 82.0649 29.6371C82.0649 29.3608 82.0015 29.0848 81.8959 28.8298H81.8958ZM81.5576 30.317C81.4731 30.5294 81.3462 30.7206 81.1982 30.8694C81.0502 31.0181 80.86 31.1455 80.6486 31.2306C80.4372 31.3155 80.2258 31.358 79.9721 31.358C79.7396 31.358 79.507 31.3155 79.2957 31.2306C79.0844 31.1456 78.894 31.0181 78.746 30.8693C78.598 30.7206 78.4712 30.5294 78.3866 30.317C78.302 30.1045 78.2598 29.8921 78.2598 29.6372C78.2598 29.4034 78.302 29.1698 78.3867 28.9573C78.4712 28.7449 78.598 28.5536 78.746 28.4049C78.894 28.2562 79.0843 28.1287 79.2957 28.0437C79.507 27.9587 79.7184 27.9163 79.9721 27.9163C80.2046 27.9163 80.4372 27.9588 80.6486 28.0438C80.86 28.1287 81.0502 28.2562 81.1982 28.405C81.3462 28.5536 81.4731 28.7448 81.5576 28.9573C81.6422 29.1699 81.6844 29.3822 81.6844 29.6372C81.6844 29.8921 81.6422 30.1045 81.5576 30.317ZM80.3738 29.8283C80.5428 29.8071 80.6697 29.7434 80.7754 29.6372C80.8811 29.5309 80.9445 29.3822 80.9445 29.1698C80.9445 28.936 80.8811 28.7661 80.7331 28.6386C80.6063 28.5111 80.3738 28.4474 80.0989 28.4474H79.1688V30.8481H79.6128V29.8708H79.9298L80.5217 30.8481H80.9868L80.3738 29.8283ZM80.1412 29.4672H79.6126V28.7873H80.1411C80.2045 28.7873 80.268 28.8085 80.3314 28.8298C80.3949 28.8511 80.4371 28.8936 80.4582 28.9361C80.5005 28.9785 80.5005 29.0423 80.5005 29.1272C80.5005 29.2122 80.4794 29.276 80.4582 29.3185C80.4159 29.361 80.3737 29.4034 80.3314 29.4247C80.268 29.4459 80.2045 29.4672 80.1411 29.4672H80.1412Z" fill="#202430"/>
</svg>
